[Header]
FileType HTR
DataType HTRS
FileVersion 1
NumSegments 64
NumFrames 3
DataFrameRate 24
EulerRotationOrder ZYX
CalibrationUnits mm
RotationUnits Degrees
GlobalAxisofGravity Y
BoneLengthAxis Y
ScaleFactor 1.0
[SegmentNames&Hierarchy]
Hips	GLOBAL
Spine	Hips
Spine1	Spine
Spine2	Spine1
Neck	Spine2
Head	Neck
LeftEye	Head
RightEye	Head
LeftShoulder	Spine2
LeftArm	LeftShoulder
LeftForeArm	LeftArm
LeftHand	LeftForeArm
LeftHandThumb1	LeftHand
LeftHandThumb2	LeftHandThumb1
LeftHandThumb3	LeftHandThumb2
LeftHandThumb4	LeftHandThumb3
LeftHandIndex1	LeftHand
LeftHandIndex2	LeftHandIndex1
LeftHandIndex3	LeftHandIndex2
LeftHandIndex4	LeftHandIndex3
LeftHandMiddle1	LeftHand
LeftHandMiddle2	LeftHandMiddle1
LeftHandMiddle3	LeftHandMiddle2
LeftHandMiddle4	LeftHandMiddle3
LeftHandRing1	LeftHand
LeftHandRing2	LeftHandRing1
LeftHandRing3	LeftHandRing2
LeftHandRing4	LeftHandRing3
LeftHandPinky1	LeftHand
LeftHandPinky2	LeftHandPinky1
LeftHandPinky3	LeftHandPinky2
LeftHandPinky4	LeftHandPinky3
RightShoulder	Spine2
RightArm	RightShoulder
RightForeArm	RightArm
RightHand	RightForeArm
RightHandPinky1	RightHand
RightHandPinky2	RightHandPinky1
RightHandPinky3	RightHandPinky2
RightHandPinky4	RightHandPinky3
RightHandRing1	RightHand
RightHandRing2	RightHandRing1
RightHandRing3	RightHandRing2
RightHandRing4	RightHandRing3
RightHandMiddle1	RightHand
RightHandMiddle2	RightHandMiddle1
RightHandMiddle3	RightHandMiddle2
RightHandMiddle4	RightHandMiddle3
RightHandIndex1	RightHand
RightHandIndex2	RightHandIndex1
RightHandIndex3	RightHandIndex2
RightHandIndex4	RightHandIndex3
RightHandThumb1	RightHand
RightHandThumb2	RightHandThumb1
RightHandThumb3	RightHandThumb2
RightHandThumb4	RightHandThumb3
LeftUpLeg	Hips
LeftLeg	LeftUpLeg
LeftFoot	LeftLeg
LeftToeBase	LeftFoot
RightUpLeg	Hips
RightLeg	RightUpLeg
RightFoot	RightLeg
RightToeBase	RightFoot
[BasePosition]
Hips	0	0	0	0	0	0	1
Spine	0	0	0	0	0	0	1
Spine1	0	0	0	0	0	0	1
Spine2	0	0	0	0	0	0	1
Neck	0	0	0	0	0	0	1
Head	0	0	0	0	0	0	1
LeftEye	0	0	0	0	0	0	1
RightEye	0	0	0	0	0	0	1
LeftShoulder	0	0	0	0	0	0	1
LeftArm	0	0	0	0	0	0	1
LeftForeArm	0	0	0	0	0	0	1
LeftHand	0	0	0	0	0	0	1
LeftHandThumb1	0	0	0	0	0	0	1
LeftHandThumb2	0	0	0	0	0	0	1
LeftHandThumb3	0	0	0	0	0	0	1
LeftHandThumb4	0	0	0	0	0	0	1
LeftHandIndex1	0	0	0	0	0	0	1
LeftHandIndex2	0	0	0	0	0	0	1
LeftHandIndex3	0	0	0	0	0	0	1
LeftHandIndex4	0	0	0	0	0	0	1
LeftHandMiddle1	0	0	0	0	0	0	1
LeftHandMiddle2	0	0	0	0	0	0	1
LeftHandMiddle3	0	0	0	0	0	0	1
LeftHandMiddle4	0	0	0	0	0	0	1
LeftHandRing1	0	0	0	0	0	0	1
LeftHandRing2	0	0	0	0	0	0	1
LeftHandRing3	0	0	0	0	0	0	1
LeftHandRing4	0	0	0	0	0	0	1
LeftHandPinky1	0	0	0	0	0	0	1
LeftHandPinky2	0	0	0	0	0	0	1
LeftHandPinky3	0	0	0	0	0	0	1
LeftHandPinky4	0	0	0	0	0	0	1
RightShoulder	0	0	0	0	0	0	1
RightArm	0	0	0	0	0	0	1
RightForeArm	0	0	0	0	0	0	1
RightHand	0	0	0	0	0	0	1
RightHandPinky1	0	0	0	0	0	0	1
RightHandPinky2	0	0	0	0	0	0	1
RightHandPinky3	0	0	0	0	0	0	1
RightHandPinky4	0	0	0	0	0	0	1
RightHandRing1	0	0	0	0	0	0	1
RightHandRing2	0	0	0	0	0	0	1
RightHandRing3	0	0	0	0	0	0	1
RightHandRing4	0	0	0	0	0	0	1
RightHandMiddle1	0	0	0	0	0	0	1
RightHandMiddle2	0	0	0	0	0	0	1
RightHandMiddle3	0	0	0	0	0	0	1
RightHandMiddle4	0	0	0	0	0	0	1
RightHandIndex1	0	0	0	0	0	0	1
RightHandIndex2	0	0	0	0	0	0	1
RightHandIndex3	0	0	0	0	0	0	1
RightHandIndex4	0	0	0	0	0	0	1
RightHandThumb1	0	0	0	0	0	0	1
RightHandThumb2	0	0	0	0	0	0	1
RightHandThumb3	0	0	0	0	0	0	1
RightHandThumb4	0	0	0	0	0	0	1
LeftUpLeg	0	0	0	0	0	0	1
LeftLeg	0	0	0	0	0	0	1
LeftFoot	0	0	0	0	0	0	1
LeftToeBase	0	0	0	0	0	0	1
RightUpLeg	0	0	0	0	0	0	1
RightLeg	0	0	0	0	0	0	1
RightFoot	0	0	0	0	0	0	1
RightToeBase	0	0	0	0	0	0	1
[Hips]
9	-615.7335205	930.59729	12.94204235	-8.044454575	-75.22408295	14.99135494	1.0
10	-680.4153442	947.5623779	13.45293808	-9.924243927	-71.33584595	17.16496086	1.0
11	-744.4277954	967.0340576	10.95970058	-7.114809513	-68.70587158	14.55019665	1.0
[Spine]
9	0	101.8159943	1.315000057	4.519177914	16.98714828	-6.092781544	1.0
10	0	101.8159943	1.315000057	5.224287987	13.15622997	-6.413034439	1.0
11	0	101.8159943	1.315000057	5.735447884	10.51077557	-5.57089138	1.0
[Spine1]
9	0	100.8349991	-10.00800037	3.615742445	6.909989357	-2.517525911	1.0
10	0	100.8349991	-10.00800037	3.842247725	7.125884056	-2.606947184	1.0
11	0	100.8349991	-10.00800037	4.062552929	6.552674294	-2.200577259	1.0
[Spine2]
9	0	91	-13.73399925	3.539883137	6.946108818	-2.495212317	1.0
10	0	91	-13.73399925	3.775946617	7.155626774	-2.585515261	1.0
11	0	91	-13.73399925	4.019124508	6.574130058	-2.188803196	1.0
[Neck]
9	0	166.7169952	-25.16200066	4.223536491	5.483039379	1.533156395	1.0
10	0	166.7169952	-25.16200066	4.48085022	5.670553684	0.985676527	1.0
11	0	166.7169952	-25.16200066	4.518254757	5.774877548	0.9584308267	1.0
[Head]
9	0	96.17900085	16.84999847	-14.10380173	32.49282837	-11.06373882	1.0
10	0	96.17900085	16.84999847	-13.69468784	32.9398613	-11.33590603	1.0
11	0	96.17900085	16.84999847	-12.55194283	33.46114731	-11.46175003	1.0
[LeftEye]
9	30.6760006	64.09500122	92.83599854	0	0	0	1.0
10	30.6760006	64.09500122	92.83599854	0	0	0	1.0
11	30.6760006	64.09500122	92.83599854	0	0	0	1.0
[RightEye]
9	-30.6760006	64.09500122	92.83499908	0	0	0	1.0
10	-30.6760006	64.09500122	92.83499908	0	0	0	1.0
11	-30.6760006	64.09500122	92.83499908	0	0	0	1.0
[LeftShoulder]
9	45.70400238	109.4599991	-26.28000069	0.9672940373	4.570940018	-8.819471359	1.0
10	45.70400238	109.4599991	-26.28000069	0.7810514569	3.783908606	-9.577103615	1.0
11	45.70400238	109.4599991	-26.28000069	0.5971966982	2.904696465	-9.805241585	1.0
[LeftArm]
9	105.923996	-5.24600029	-22.32099915	15.6394701	-0.7641560435	-61.34647751	1.0
10	105.923996	-5.24600029	-22.32099915	15.54012775	-2.926189184	-61.82419968	1.0
11	105.923996	-5.24600029	-22.32099915	15.4168787	-4.611270905	-63.06225967	1.0
[LeftForeArm]
9	278.414978	-0.0009999999311	0	9.26440498e-06	-5.672277927	-0.0002133302769	1.0
10	278.414978	-0.0009999999311	0	8.150234976e-07	-6.280750275	-0.0002047639136	1.0
11	278.414978	-0.0009999999311	0	-7.953977729e-06	-7.660196781	-0.0002092393552	1.0
[LeftHand]
9	283.2879944	0	0	5.992249966	2.212779284	6.559164524	1.0
10	283.2879944	0	0	5.195345402	-1.005307198	4.576153278	1.0
11	283.2879944	0	0	4.474641323	-4.10273695	1.201073289	1.0
[LeftHandThumb1]
9	24.6609993	-15.75	26.8239994	30.58115005	-20.32058144	11.29641056	1.0
10	24.6609993	-15.75	26.8239994	30.58115005	-20.32058144	11.29641056	1.0
11	24.6609993	-15.75	26.8239994	30.58115005	-20.32058144	11.29641056	1.0
[LeftHandThumb2]
9	32.29800034	-18.64699936	18.64699936	13.57783985	16.34279251	-2.999496937	1.0
10	32.29800034	-18.64699936	18.64699936	13.21530914	17.00227737	-2.9942348	1.0
11	32.29800034	-18.64699936	18.64699936	12.26729202	18.97614861	-2.675694466	1.0
[LeftHandThumb3]
9	26.52600098	-15.31499958	15.31499958	-15.20506573	7.885598183	10.0780592	1.0
10	26.52600098	-15.31499958	15.31499958	-15.20384502	7.888461113	10.07722282	1.0
11	26.52600098	-15.31499958	15.31499958	-15.17086124	7.965982914	10.05373859	1.0
[LeftHandThumb4]
9	19.54599953	-11.28499985	11.28499985	0	0	0	1.0
10	19.54599953	-11.28499985	11.28499985	0	0	0	1.0
11	19.54599953	-11.28499985	11.28499985	0	0	0	1.0
[LeftHandIndex1]
9	91.09299469	-5.170999527	22.60099792	-1.604282022	-5.996598244	-27.46024895	1.0
10	91.09299469	-5.170999527	22.60099792	-1.664151073	-6.17302227	-28.09098434	1.0
11	91.09299469	-5.170999527	22.60099792	-1.557902455	-6.29042244	-26.8521843	1.0
[LeftHandIndex2]
9	36.76399994	0	0	-0.7018835545	2.775822163	-28.37538338	1.0
10	36.76399994	0	0	-0.7070264816	2.785284281	-28.48122597	1.0
11	36.76399994	0	0	-0.7115527987	2.793627501	-28.57460785	1.0
[LeftHandIndex3]
9	28.83100128	0	0	-0.2853031456	1.803509712	-17.97729874	1.0
10	28.83100128	0	0	-0.2886799574	1.813881993	-18.08426857	1.0
11	28.83100128	0	0	-0.291683048	1.823034644	-18.17867279	1.0
[LeftHandIndex4]
9	23.92700005	0	0	0	0	0	1.0
10	23.92700005	0	0	0	0	0	1.0
11	23.92700005	0	0	0	0	0	1.0
[LeftHandMiddle1]
9	95.33399963	0	0	-2.629089355	2.213619947	-37.97893524	1.0
10	95.33399963	0	0	-2.698596478	2.083596945	-38.7092514	1.0
11	95.33399963	0	0	-2.662177801	2.030025482	-38.33203125	1.0
[LeftHandMiddle2]
9	36.98199844	0	0	-0.5511903167	2.476924658	-25.08762169	1.0
10	36.98199844	0	0	-0.5511611104	2.47684288	-25.08677101	1.0
11	36.98199844	0	0	-0.5511538386	2.476852894	-25.08690453	1.0
[LeftHandMiddle3]
9	29.50900078	0	0	-0.3841308355	2.083467007	-20.89089394	1.0
10	29.50900078	0	0	-0.3841002584	2.083413363	-20.89009476	1.0
11	29.50900078	0	0	-0.3841235936	2.083432198	-20.89029884	1.0
[LeftHandMiddle4]
9	28.3390007	0	0	0	0	0	1.0
10	28.3390007	0	0	0	0	0	1.0
11	28.3390007	0	0	0	0	0	1.0
[LeftHandRing1]
9	91.04499817	-0.4390000105	-18.65100098	-2.290616989	2.905045509	-34.34619522	1.0
10	91.04499817	-0.4390000105	-18.65100098	-2.319074631	2.875008583	-34.6571312	1.0
11	91.04499817	-0.4390000105	-18.65100098	-2.266517878	3.135958672	-34.07753372	1.0
[LeftHandRing2]
9	31.54000092	0	0	-0.8549849391	3.041912317	-31.39181519	1.0
10	31.54000092	0	0	-0.8664197326	3.060537815	-31.60637283	1.0
11	31.54000092	0	0	-0.8788518906	3.080625296	-31.83856964	1.0
[LeftHandRing3]
9	29.37700081	0	0	-0.9513049126	3.194176435	-33.16226959	1.0
10	29.37700081	0	0	-0.9634720087	3.212685823	-33.37995148	1.0
11	29.37700081	0	0	-0.9767231345	3.232678175	-33.61582184	1.0
[LeftHandRing4]
9	26.47500038	0	0	0	0	0	1.0
10	26.47500038	0	0	0	0	0	1.0
11	26.47500038	0	0	0	0	0	1.0
[LeftHandPinky1]
9	80.77799988	-4.887000084	-38.06099701	-2.005089998	1.692764521	-31.04355812	1.0
10	80.77799988	-4.887000084	-38.06099701	-2.016089439	1.768448472	-31.16571808	1.0
11	80.77799988	-4.887000084	-38.06099701	-1.979887605	2.356200457	-30.73117447	1.0
[LeftHandPinky2]
9	36	0	0	-0.4758649766	2.309351444	-23.28395844	1.0
10	36	0	0	-0.4895907044	2.340954065	-23.62210274	1.0
11	36	0	0	-0.4908689857	2.343857527	-23.65310478	1.0
[LeftHandPinky3]
9	21.14200211	0	0	-0.547121346	2.468215227	-24.99329567	1.0
10	21.14200211	0	0	-0.5558649302	2.486847162	-25.19548416	1.0
11	21.14200211	0	0	-0.5576497316	2.49067688	-25.23687172	1.0
[LeftHandPinky4]
9	19.75699997	0	0	0	0	0	1.0
10	19.75699997	0	0	0	0	0	1.0
11	19.75699997	0	0	0	0	0	1.0
[RightShoulder]
9	-45.70000076	109.4620056	-26.28000069	-0.6653951406	9.172293663	10.04561043	1.0
10	-45.70000076	109.4620056	-26.28000069	0.1314940304	9.021313667	9.977899551	1.0
11	-45.70000076	109.4620056	-26.28000069	0.8971661925	8.726754189	9.968154907	1.0
[RightArm]
9	-105.9280014	-5.248000145	-22.32099915	37.61621857	29.64788628	65.94935608	1.0
10	-105.9280014	-5.248000145	-22.32099915	36.77380753	28.95256615	65.11391449	1.0
11	-105.9280014	-5.248000145	-22.32099915	35.69958115	27.88977814	63.23284531	1.0
[RightForeArm]
9	-278.414978	0	0	1.09544419e-06	17.01718712	2.21239543e-06	1.0
10	-278.414978	0	0	6.641921573e-06	14.91710567	2.601595952e-05	1.0
11	-278.414978	0	0	-1.30209105e-06	13.80110741	2.077045792e-06	1.0
[RightHand]
9	-283.2879944	0	0.0009999999311	-6.841365814	5.523591995	-12.69474411	1.0
10	-283.2879944	0	0.0009999999311	-6.229789257	2.391111612	-9.107445717	1.0
11	-283.2879944	0	0.0009999999311	-3.265769243	0.9226009846	-6.114287853	1.0
[RightHandPinky1]
9	-80.76699829	-4.885000229	-38.06000137	-2.336514711	-3.014471769	37.87940216	1.0
10	-80.76699829	-4.885000229	-38.06000137	-2.261216879	-3.941406012	36.93874359	1.0
11	-80.76699829	-4.885000229	-38.06000137	-2.203689337	-4.601005554	36.22557068	1.0
[RightHandPinky2]
9	-36	0	0.0009999999311	-0.3851304054	-1.850566387	23.529953	1.0
10	-36	0	0.0009999999311	-0.3898940682	-1.861483812	23.67720795	1.0
11	-36	0	0.0009999999311	-0.3943699002	-1.871666551	23.8146534	1.0
[RightHandPinky3]
9	-21.14200211	0	0	-0.1657461524	-1.229055285	15.36023712	1.0
10	-21.14200211	0	0	-0.1689901203	-1.240800738	15.51071262	1.0
11	-21.14200211	0	0	-0.1720481813	-1.251771688	15.65146828	1.0
[RightHandPinky4]
9	-19.75699997	0	0	0	0	0	1.0
10	-19.75699997	0	0	0	0	0	1.0
11	-19.75699997	0	0	0	0	0	1.0
[RightHandRing1]
9	-91.03599548	-0.4390000105	-18.65100098	-1.956785321	-6.948659897	33.13772583	1.0
10	-91.03599548	-0.4390000105	-18.65100098	-1.907083511	-6.567008972	32.48960876	1.0
11	-91.03599548	-0.4390000105	-18.65100098	-1.875780582	-6.452312469	32.08174896	1.0
[RightHandRing2]
9	-31.54000092	0	0	-0.3697667122	-1.814870834	23.03008461	1.0
10	-31.54000092	0	0	-0.3685376048	-1.811980963	22.99120522	1.0
11	-31.54000092	0	0	-0.3693836033	-1.813979626	23.0180378	1.0
[RightHandRing3]
9	-29.37700081	0	0	-0.2652055323	-1.546090961	19.46587944	1.0
10	-29.37700081	0	0	-0.2642195821	-1.543287396	19.429142	1.0
11	-29.37700081	0	0	-0.2649676502	-1.545404553	19.45689011	1.0
[RightHandRing4]
9	-26.47500038	0	0	0	0	0	1.0
10	-26.47500038	0	0	0	0	0	1.0
11	-26.47500038	0	0	0	0	0	1.0
[RightHandMiddle1]
9	-95.32500458	0	0	-1.892783165	-3.657733202	32.28321075	1.0
10	-95.32500458	0	0	-1.793456674	-3.496213436	30.98873901	1.0
11	-95.32500458	0	0	-1.764663815	-3.292393208	30.61133766	1.0
[RightHandMiddle2]
9	-36.98199844	0	0	-0.2408701777	-1.475439906	18.54266357	1.0
10	-36.98199844	0	0	-0.2416159511	-1.47768271	18.57182503	1.0
11	-36.98199844	0	0	-0.242382139	-1.479945421	18.60136986	1.0
[RightHandMiddle3]
9	-29.50900078	0	0	-0.0866144374	-0.8944200873	11.08795452	1.0
10	-29.50900078	0	0	-0.08707727492	-0.896728158	11.1171236	1.0
11	-29.50900078	0	0	-0.08753422648	-0.8990812898	11.1466465	1.0
[RightHandMiddle4]
9	-28.3390007	0	0.0009999999311	0	0	0	1.0
10	-28.3390007	0	0.0009999999311	0	0	0	1.0
11	-28.3390007	0	0.0009999999311	0	0	0	1.0
[RightHandIndex1]
9	-91.08300018	-5.167999744	22.60099792	-1.051642299	-0.8390881419	26.36813354	1.0
10	-91.08300018	-5.167999744	22.60099792	-1.147833467	0.3884294927	25.12331772	1.0
11	-91.08300018	-5.167999744	22.60099792	-1.268296003	1.312817097	24.73241615	1.0
[RightHandIndex2]
9	-36.76399994	0	0	-0.1022313088	-0.9686301947	12.04898548	1.0
10	-36.76399994	0	0	-0.1018277109	-0.96676898	12.02550793	1.0
11	-36.76399994	0	0	-0.1019867659	-0.9675097466	12.03488159	1.0
[RightHandIndex3]
9	-28.83100128	0	0	-0.1063620374	-0.9878054261	12.29122734	1.0
10	-28.83100128	0	0	-0.1059650555	-0.9859380722	12.26763725	1.0
11	-28.83100128	0	0	-0.1061192527	-0.9866760969	12.27698421	1.0
[RightHandIndex4]
9	-23.92700005	0	0	0	0	0	1.0
10	-23.92700005	0	0	0	0	0	1.0
11	-23.92700005	0	0	0	0	0	1.0
[RightHandThumb1]
9	-24.64799881	-15.72700024	26.82600021	-0.1902875453	0.8218618631	0.3671384752	1.0
10	-24.64799881	-15.72700024	26.82600021	-0.1902875453	0.8218618631	0.3671384752	1.0
11	-24.64799881	-15.72700024	26.82600021	-0.1902875453	0.8218618631	0.3671384752	1.0
[RightHandThumb2]
9	-32.29800034	-18.64699936	18.64699936	18.22955322	-10.1577692	-20.31886864	1.0
10	-32.29800034	-18.64699936	18.64699936	17.05574608	-5.39778614	-18.97062302	1.0
11	-32.29800034	-18.64699936	18.64699936	16.5794735	-2.563237667	-18.45830917	1.0
[RightHandThumb3]
9	-26.52600098	-15.31399918	15.31399918	-1.649239421	11.00566578	-26.54223442	1.0
10	-26.52600098	-15.31399918	15.31399918	-0.6626694798	8.990047455	-24.75534248	1.0
11	-26.52600098	-15.31399918	15.31399918	-0.2659676373	8.208803177	-23.93752098	1.0
[RightHandThumb4]
9	-19.54599953	-11.28499985	11.28499985	0	0	0	1.0
10	-19.54599953	-11.28499985	11.28499985	0	0	0	1.0
11	-19.54599953	-11.28499985	11.28499985	0	0	0	1.0
[LeftUpLeg]
9	82.07800293	-67.51699829	-15.99599934	-45.81635666	-3.852431059	-6.658201218	1.0
10	82.07800293	-67.51699829	-15.99599934	-40.93709183	-2.571151733	-8.788363457	1.0
11	82.07800293	-67.51699829	-15.99599934	-35.74054337	0.2618127167	-8.29126358	1.0
[LeftLeg]
9	0	-443.7049866	2.845999956	39.37812042	4.506770611	4.552185059	1.0
10	0	-443.7049866	2.845999956	38.52802277	1.404678941	1.785088658	1.0
11	0	-443.7049866	2.845999956	36.19750977	-1.940164328	-1.006291986	1.0
[LeftFoot]
9	0	-444.2789917	-29.8219986	0.02805473655	1.037351012	2.612446547	1.0
10	0	-444.2789917	-29.8219986	-3.902646065	0.3491615653	2.910490751	1.0
11	0	-444.2789917	-29.8219986	-6.795078278	-0.6958867311	3.004801035	1.0
[LeftToeBase]
9	0	-87.28699493	107.1060028	-5.375382423	-4.425238149e-05	4.726443876e-06	1.0
10	0	-87.28699493	107.1060028	-5.37681675	7.599267519e-06	-4.960842944e-06	1.0
11	0	-87.28699493	107.1060028	-5.378736019	-5.381315532e-06	-1.69537384e-06	1.0
[RightUpLeg]
9	-82.07800293	-67.51699829	-15.99599934	3.945419312	-16.56215286	-3.78859973	1.0
10	-82.07800293	-67.51699829	-15.99599934	-8.053812027	-15.437644	-3.117708206	1.0
11	-82.07800293	-67.51699829	-15.99599934	-18.65484428	-15.05732918	-1.974591613	1.0
[RightLeg]
9	0	-443.7049866	2.861999989	47.11804199	6.197972775	7.983602047	1.0
10	0	-443.7049866	2.861999989	62.98984909	3.722527742	9.004473686	1.0
11	0	-443.7049866	2.861999989	69.45513916	2.847941875	9.301756859	1.0
[RightFoot]
9	0	-444.2770081	-29.83799934	16.43148232	17.44137573	9.02033329	1.0
10	0	-444.2770081	-29.83799934	12.75398731	8.973938942	11.28355217	1.0
11	0	-444.2770081	-29.83799934	2.531708956	1.370930433	1.648668051	1.0
[RightToeBase]
9	0	-87.28699493	107.1060028	-17.27581406	-0.5237676501	-1.855540395	1.0
10	0	-87.28699493	107.1060028	-11.80592155	-2.050448984e-06	1.170265296e-05	1.0
11	0	-87.28699493	107.1060028	-9.952820778	5.062654054e-06	2.021316874e-07	1.0
[EndOfFile]
